HIERARCHY
ROOT Hips
{
	OFFSET 0.00000 0.00000 0.00000
	CHANNELS 6 Xposition Yposition Zposition Zrotation Yrotation Xrotation 
	JOINT LHipJoint
	{
		OFFSET 0 0 0
		CHANNELS 3 Zrotation Yrotation Xrotation
		JOINT LeftUpLeg
		{
			OFFSET 1.75344 -1.53157 0.77399
			CHANNELS 3 Zrotation Yrotation Xrotation
			JOINT LeftLeg
			{
				OFFSET 2.25415 -6.19323 0.00000
				CHANNELS 3 Zrotation Yrotation Xrotation
				JOINT LeftFoot
				{
					OFFSET 2.30342 -6.32861 0.00000
					CHANNELS 3 Zrotation Yrotation Xrotation
					JOINT LeftToeBase
					{
						OFFSET 0.10958 -0.30108 1.49206
						CHANNELS 3 Zrotation Yrotation Xrotation
						End Site
						{
							OFFSET 0.00000 -0.00000 0.77783
						}
					}
				}
			}
		}
	}
	JOINT RHipJoint
	{
		OFFSET 0 0 0
		CHANNELS 3 Zrotation Yrotation Xrotation
		JOINT RightUpLeg
		{
			OFFSET -1.81912 -1.53156 0.77399
			CHANNELS 3 Zrotation Yrotation Xrotation
			JOINT RightLeg
			{
				OFFSET -2.22882 -6.12365 0.00000
				CHANNELS 3 Zrotation Yrotation Xrotation
				JOINT RightFoot
				{
					OFFSET -2.21943 -6.09785 0.00000
					CHANNELS 3 Zrotation Yrotation Xrotation
					JOINT RightToeBase
					{
						OFFSET -0.18931 -0.52012 1.59379
						CHANNELS 3 Zrotation Yrotation Xrotation
						End Site
						{
							OFFSET -0.00000 -0.00000 0.84686
						}
					}
				}
			}
		}
	}
	JOINT LowerBack
	{
		OFFSET 0 0 0
		CHANNELS 3 Zrotation Yrotation Xrotation
		JOINT Spine
		{
			OFFSET -0.00200 1.66634 -0.14248
			CHANNELS 3 Zrotation Yrotation Xrotation
			JOINT Spine1
			{
				OFFSET -0.00875 1.64542 0.09514
				CHANNELS 3 Zrotation Yrotation Xrotation
				JOINT Neck
				{
					OFFSET 0 0 0
					CHANNELS 3 Zrotation Yrotation Xrotation
					JOINT Neck1
					{
						OFFSET 0.02257 1.59605 0.00839
						CHANNELS 3 Zrotation Yrotation Xrotation
						JOINT Head
						{
							OFFSET -0.10214 1.57530 -0.23335
							CHANNELS 3 Zrotation Yrotation Xrotation
							End Site
							{
								OFFSET -0.03588 1.60717 -0.08062
							}
						}
					}
				}
				JOINT LeftShoulder
				{
					OFFSET 0 0 0
					CHANNELS 3 Zrotation Yrotation Xrotation
					JOINT LeftArm
					{
						OFFSET 2.54983 1.10186 0.40078
						CHANNELS 3 Zrotation Yrotation Xrotation
						JOINT LeftForeArm
						{
							OFFSET 4.28840 -0.00000 0.00000
							CHANNELS 3 Zrotation Yrotation Xrotation
							JOINT LeftHand
							{
								OFFSET 3.06552 -0.00000 -0.00000
								CHANNELS 3 Zrotation Yrotation Xrotation
								JOINT LeftFingerBase
								{
									OFFSET 0 0 0
									CHANNELS 3 Zrotation Yrotation Xrotation
									JOINT LeftHandIndex1
									{
										OFFSET 0.75304 -0.00000 0.00000
										CHANNELS 3 Zrotation Yrotation Xrotation
										End Site
										{
											OFFSET 0.60712 -0.00000 0.00000
										}
									}
								}
								JOINT LThumb
								{
									OFFSET 0 0 0
									CHANNELS 3 Zrotation Yrotation Xrotation
									End Site
									{
										OFFSET 0.61639 -0.00000 0.61639
									}
								}
							}
						}
					}
				}
				JOINT RightShoulder
				{
					OFFSET 0 0 0
					CHANNELS 3 Zrotation Yrotation Xrotation
					JOINT RightArm
					{
						OFFSET -2.60909 1.35448 0.21802
						CHANNELS 3 Zrotation Yrotation Xrotation
						JOINT RightForeArm
						{
							OFFSET -4.52172 -0.00000 -0.00000
							CHANNELS 3 Zrotation Yrotation Xrotation
							JOINT RightHand
							{
								OFFSET -2.89140 -0.00000 0.00000
								CHANNELS 3 Zrotation Yrotation Xrotation
								JOINT RightFingerBase
								{
									OFFSET 0 0 0
									CHANNELS 3 Zrotation Yrotation Xrotation
									JOINT RightHandIndex1
									{
										OFFSET -0.68054 -0.00000 0.00000
										CHANNELS 3 Zrotation Yrotation Xrotation
										End Site
										{
											OFFSET -0.54867 -0.00000 0.00000
										}
									}
								}
								JOINT RThumb
								{
									OFFSET 0 0 0
									CHANNELS 3 Zrotation Yrotation Xrotation
									End Site
									{
										OFFSET -0.55705 -0.00000 0.55705
									}
								}
							}
						}
					}
				}
			}
		}
	}
}
MOTION
Frames: 8
Frame Time: .0083333
9.0089 15.5346 22.7494 0 0 0 0 0 0 -21 0 0 0 0 0 0 0 0 0 0 0 0 0 0 21 0 0 0 0 0 0 0 0 0 0 0 0 0 0 0 0 0 0 0 0 0 0 -16 0 0 21 0 0 11 0 0 0 -8 0 0 0 0 0 0 0 0 0 0 0 0 0 0 0 0 0 0 0 0 8 0 0 0 0 0 0 0 0 0 0 0 0 0 0 0 0 0
9.0089 15.5346 22.7494 179.7190 0.9176 178.7270 0.0000 0.0000 0.0000 -26.7818 -22.8485 4.8116 1.1671 6.8577 19.2946 0.6593 14.1282 -26.1861 1.1831 -6.9031 -19.4287 0.0000 0.0000 0.0000 27.6657 18.0323 7.0228 -0.6910 -5.3141 14.8068 1.0535 -23.2367 -24.7318 -0.1836 -2.7600 7.6114 -1.2032 0.3171 7.9924 0.4316 0.4384 -5.1329 1.0567 0.3626 -9.9827 -6.4509 -2.1319 -10.1995 9.1621 -4.6355 19.7653 3.6212 -2.2082 8.1327 -0.0000 -0.0000 0.0000 -89.0142 15.1733 27.8191 21.1159 -31.9634 -6.1112 -0.0000 -0.0000 12.4098 1.4008 -38.4902 -0.8719 -7.1250 0.0000 -0.0000 -17.2113 -7.0175 20.0595 -0.0000 -0.0000 0.0000 84.9369 -14.2980 41.5208 -20.7138 31.4927 -5.8997 0.0000 0.0000 27.6183 -20.7298 -54.2490 17.0742 7.1250 -0.0000 -0.0000 70.4053 -79.4498 -60.0091
9.0067 15.5361 22.7488 179.7570 0.8709 178.7310 0.0000 0.0000 0.0000 -26.7457 -22.8346 4.8297 1.1606 6.8394 19.2405 0.6415 14.1457 -26.0639 1.1840 -6.9056 -19.4359 0.0000 0.0000 0.0000 27.7216 18.1189 7.0783 -0.6904 -5.3120 14.8006 1.0466 -23.2835 -24.8923 -0.2001 -2.8808 7.9471 -1.1528 0.3068 7.9908 0.4325 0.4317 -5.1424 1.0303 0.3563 -9.9915 -6.3787 -2.1589 -10.1020 9.0669 -4.6260 19.5147 3.5758 -2.2020 8.0274 -0.0000 -0.0000 0.0000 -89.0183 15.1825 27.7972 21.1322 -31.9823 -6.1198 -0.0000 -0.0000 12.4865 2.3475 -38.5172 -1.4624 -7.1250 0.0000 -0.0000 -16.7336 -7.1372 19.4837 -0.0000 -0.0000 0.0000 84.9498 -14.3511 41.6456 -21.0786 31.9200 -6.0914 0.0000 0.0000 27.0448 -20.0888 -54.1335 16.5087 7.1250 -0.0000 -0.0000 69.7868 -79.1748 -59.1366
9.0067 15.5387 22.7533 179.7380 0.6953 178.8080 0.0000 0.0000 0.0000 -26.7116 -22.8912 4.7142 1.1555 6.8247 19.1970 0.5998 14.1971 -25.7856 1.2742 -7.1540 -20.1725 0.0000 0.0000 0.0000 27.6943 18.2182 7.0211 -0.6928 -5.3211 14.8267 1.0193 -23.3266 -25.2359 -0.2467 -3.1961 8.8251 -1.2060 0.2445 8.0055 0.4281 0.3438 -5.1903 1.0697 0.3194 -10.0512 -6.4008 -2.1584 -9.9394 9.1123 -4.6046 19.2723 3.5958 -2.1899 7.9172 0.0000 -0.0000 0.0000 -89.0732 15.1947 27.6276 21.1510 -32.0042 -6.1298 -0.0000 -0.0000 12.6534 2.5061 -38.3526 -1.5557 -7.1250 0.0000 -0.0000 -16.6444 -6.9962 19.3350 0.0000 -0.0000 0.0000 84.9334 -14.3710 41.9668 -21.3867 32.2769 -6.2552 0.0000 0.0000 26.1021 -20.1001 -54.2999 16.5510 7.1250 -0.0000 -0.0000 70.6602 -79.2055 -59.9951
9.0012 15.5358 22.7428 179.7390 0.8181 178.7240 0.0000 0.0000 0.0000 -26.8251 -22.9510 4.9090 1.1550 6.8233 19.1930 0.6019 14.3636 -25.9829 1.2860 -7.1859 -20.2674 0.0000 0.0000 0.0000 27.6968 18.1732 7.1502 -0.6895 -5.3086 14.7907 1.0111 -23.2740 -25.2094 -0.2469 -3.1974 8.8287 -1.1695 0.2559 7.9029 0.4377 0.3637 -5.1426 1.0567 0.3250 -9.9375 -6.3187 -3.2066 -9.8964 8.8912 -4.2857 19.4296 3.6409 -1.3288 7.9496 -0.0000 -0.0000 0.0000 -89.1504 15.1768 27.3857 21.1623 -32.0173 -6.1358 -0.0000 -0.0000 12.8523 2.2067 -38.3732 -1.3703 -7.1250 0.0000 -0.0000 -16.7975 -6.9854 19.5258 -0.0000 -0.0000 0.0000 84.8113 -14.3575 42.6161 -21.7666 32.7123 -6.4593 0.0000 0.0000 24.3810 -20.4674 -54.8329 16.9675 7.1250 -0.0000 -0.0000 73.5326 -79.4161 -62.9555
9.0045 15.5381 22.7526 179.7930 0.5420 178.7510 0.0000 0.0000 0.0000 -26.6497 -22.8628 4.7230 1.1562 6.8267 19.2031 0.6395 13.9438 -25.8332 1.2525 -7.0953 -19.9979 0.0000 0.0000 0.0000 27.7703 18.1798 7.1361 -0.6865 -5.2972 14.7582 0.9896 -23.3326 -25.5233 -0.3079 -3.5674 9.8626 -1.2081 0.1458 8.0684 0.4876 0.2143 -5.1861 1.1561 0.2592 -10.0806 -6.4124 -3.1815 -9.8541 8.9105 -4.2429 19.3426 3.6657 -1.3197 7.9118 -0.0000 0.0000 0.0000 -89.2030 15.1453 27.2771 21.1894 -32.0488 -6.1502 -0.0000 -0.0000 12.9403 1.9367 -38.5202 -1.2065 -7.1250 0.0000 -0.0000 -16.9417 -7.0986 19.7378 -0.0000 0.0000 0.0000 84.6699 -14.2507 43.0816 -22.1246 33.1175 -6.6538 0.0000 0.0000 22.9813 -19.8193 -54.8967 16.4282 7.1250 -0.0000 -0.0000 73.7876 -79.1676 -62.9371
9.0013 15.5373 22.7471 179.8200 0.6527 178.6550 0.0000 0.0000 0.0000 -26.7280 -22.9225 4.9422 1.1552 6.8240 19.1949 0.6807 13.9514 -26.1680 1.1164 -6.7123 -18.8659 0.0000 0.0000 0.0000 27.8270 18.2717 7.2904 -0.6879 -5.3023 14.7729 0.9187 -23.1048 -25.7330 -0.3598 -3.8533 10.6644 -1.1708 0.1698 8.0599 0.4957 0.2487 -5.1356 1.1383 0.2714 -10.0205 -6.4008 -3.1627 -9.7705 8.8666 -4.2186 19.1399 3.6467 -1.3234 7.8262 0.0000 0.0000 0.0000 -89.1692 15.1515 27.3143 21.2444 -32.1125 -6.1793 -0.0000 -0.0000 12.8177 1.8446 -38.5766 -1.1504 -7.1250 0.0000 -0.0000 -16.9912 -7.1433 19.8122 0.0000 0.0000 0.0000 84.5739 -14.1047 43.4069 -22.3340 33.3524 -6.7686 0.0000 0.0000 22.4183 -18.5512 -54.7987 15.3347 7.1250 -0.0000 -0.0000 73.1919 -78.6610 -61.8282
8.9994 15.5369 22.7458 179.8230 0.6902 178.6190 0.0000 0.0000 0.0000 -26.7467 -22.8652 4.9998 1.1527 6.8168 19.1738 0.6866 13.9327 -26.1949 1.1219 -6.7284 -18.9131 0.0000 0.0000 0.0000 27.8436 18.2941 7.3499 -0.6889 -5.3062 14.7840 0.9125 -23.0704 -25.7242 -0.3509 -3.8058 10.5310 -1.1515 0.1710 8.0846 0.4813 0.2500 -5.1259 1.1119 0.2696 -10.0243 -6.3860 -3.1338 -9.6930 8.8901 -4.1916 18.9228 3.6501 -1.3187 7.7383 -0.0000 -0.0000 0.0000 -89.1195 15.1596 27.3448 21.2547 -32.1244 -6.1848 -0.0000 -0.0000 12.7137 1.9232 -38.5690 -1.1993 -7.1250 0.0000 -0.0000 -16.9510 -7.1439 19.7613 -0.0000 -0.0000 0.0000 84.5167 -13.9840 43.8696 -22.4513 33.4833 -6.8332 0.0000 0.0000 21.9880 -18.1815 -54.8624 15.0336 7.1250 -0.0000 -0.0000 73.5004 -78.5244 -61.9773
